<svg width="64" height="64" viewBox="0 0 64 64" fill="none" xmlns="http://www.w3.org/2000/svg">
<path d="M19.3334 18.6673C19.3334 17.5628 20.2288 16.6673 21.3334 16.6673H42.6668C43.7713 16.6673 44.6668 17.5628 44.6668 18.6673C44.6668 19.7719 43.7713 20.6673 42.6668 20.6673H21.3334C20.2288 20.6673 19.3334 19.7719 19.3334 18.6673Z" fill="#00B06C"/>
<path d="M21.3334 26.0007C20.2288 26.0007 19.3334 26.8961 19.3334 28.0007C19.3334 29.1052 20.2288 30.0007 21.3334 30.0007H34.6668C35.7713 30.0007 36.6668 29.1052 36.6668 28.0007C36.6668 26.8961 35.7713 26.0007 34.6668 26.0007H21.3334Z" fill="#00B06C"/>
<path fill-rule="evenodd" clip-rule="evenodd" d="M26.5204 3.33399C22.8735 3.33393 19.934 3.33389 17.6221 3.64472C15.2218 3.96743 13.2008 4.65781 11.5957 6.26292C9.99057 7.86803 9.30019 9.88903 8.97748 12.2893C8.66665 14.6012 8.6667 17.5407 8.66675 21.1876V42.8137C8.6667 46.4606 8.66665 49.4001 8.97748 51.712C9.30019 54.1123 9.99057 56.1333 11.5957 57.7384C13.2008 59.3435 15.2218 60.0339 17.6221 60.3566C19.934 60.6674 22.8735 60.6674 26.5204 60.6673H37.4797C41.1266 60.6674 44.0662 60.6674 46.3781 60.3566C48.7784 60.0339 50.7994 59.3435 52.4045 57.7384C54.0096 56.1333 54.7 54.1123 55.0227 51.712C55.3335 49.4001 55.3335 46.4606 55.3334 42.8136V21.1877C55.3335 17.5408 55.3335 14.6012 55.0227 12.2893C54.7 9.88903 54.0096 7.86803 52.4045 6.26292C50.7994 4.65781 48.7784 3.96743 46.3781 3.64472C44.0662 3.33389 41.1267 3.33393 37.4798 3.33399H26.5204ZM14.4241 9.09135C15.1621 8.35331 16.1983 7.87212 18.1551 7.60905C20.1693 7.33824 22.839 7.33399 26.6667 7.33399H37.3334C41.1612 7.33399 43.8308 7.33824 45.8451 7.60905C47.8018 7.87212 48.838 8.35331 49.5761 9.09135C50.3141 9.82938 50.7953 10.8656 51.0584 12.8223C51.3292 14.8366 51.3334 17.5062 51.3334 21.334V40.6673L20.752 40.6673C18.5708 40.6665 17.0824 40.666 15.806 41.0081C14.6647 41.3139 13.606 41.8134 12.6668 42.4698V21.334C12.6668 17.5062 12.671 14.8366 12.9418 12.8223C13.2049 10.8656 13.6861 9.82938 14.4241 9.09135ZM12.7381 48.6649C12.7786 49.6083 12.8422 50.438 12.9418 51.179C13.2049 53.1357 13.6861 54.1719 14.4241 54.91C15.1621 55.648 16.1983 56.1292 18.1551 56.3923C20.1693 56.6631 22.839 56.6673 26.6667 56.6673H37.3334C41.1612 56.6673 43.8308 56.6631 45.8451 56.3923C47.8018 56.1292 48.838 55.648 49.5761 54.91C50.3141 54.1719 50.7953 53.1357 51.0584 51.179C51.2793 49.5357 51.3228 47.4561 51.3313 44.6673H21.0608C18.4521 44.6673 17.5401 44.6845 16.8412 44.8718C14.9231 45.3857 13.3939 46.8116 12.7381 48.6649Z" fill="#00B06C"/>
</svg>
